PathFileType	4	(X/Y/Z)	C:/Users/opensim2020/Desktop/walking_exp_matlab/subject02_walking15_straight_01.trc	
DataRate	CameraRate	NumFrames	NumMarkers	Units	OrigDataRate	OrigDataStartFrame	OrigNumFrames	
100.00	100.00	7	42	mm	100.00	470	165	
Frame#	Time	LFHD			RFHD			LBHD			RBHD			C7			T10			CLAV			STRN			RBAK			LSHO			LUPA			LELB			LFRM			LWRA			LWRB			LFIN			RSHO			RUPA			RELB			RFRM			RWRA			RWRB			RFIN			LASI			RASI			LPSI			RPSI			LTHI			LKNE			LTIB			LANK			LHEE			LTOE			RTHI			RKNE			RTIB			RANK			RHEE			RTOE			*39			*40			*41			
		X1	Y1	Z1	X2	Y2	Z2	X3	Y3	Z3	X4	Y4	Z4	X5	Y5	Z5	X6	Y6	Z6	X7	Y7	Z7	X8	Y8	Z8	X9	Y9	Z9	X10	Y10	Z10	X11	Y11	Z11	X12	Y12	Z12	X13	Y13	Z13	X14	Y14	Z14	X15	Y15	Z15	X16	Y16	Z16	X17	Y17	Z17	X18	Y18	Z18	X19	Y19	Z19	X20	Y20	Z20	X21	Y21	Z21	X22	Y22	Z22	X23	Y23	Z23	X24	Y24	Z24	X25	Y25	Z25	X26	Y26	Z26	X27	Y27	Z27	X28	Y28	Z28	X29	Y29	Z29	X30	Y30	Z30	X31	Y31	Z31	X32	Y32	Z32	X33	Y33	Z33	X34	Y34	Z34	X35	Y35	Z35	X36	Y36	Z36	X37	Y37	Z37	X38	Y38	Z38	X39	Y39	Z39	X40	Y40	Z40	X41	Y41	Z41	X42	Y42	Z42	

83	0.820	1513.37708	-295.64551	1717.22229	1656.66418	-301.98276	1697.91846	1498.90576	-427.35715	1644.72302	1640.00916	-445.73410	1623.81750	1566.95764	-486.61703	1505.25671	1576.49133	-548.78070	1232.25586	1557.52380	-351.13385	1433.07104	1557.37805	-306.05566	1258.34314	1625.76184	-554.07721	1331.43140	1392.47498	-412.80591	1485.08936	1294.53210	-378.51642	1301.40112	1269.14795	-328.43149	1166.93567	1279.88818	-229.35307	1075.43237	1342.12427	-112.96788	1031.99634	1303.56470	-136.80519	998.75647	1311.78369	-77.44632	972.02020	1752.98633	-420.05469	1466.14038	1831.25684	-495.22537	1291.28528	1858.77380	-512.17682	1147.45325	1885.71997	-505.12189	1028.19641	1875.20337	-474.22385	894.93243	1901.78088	-523.94965	899.81879	1909.86633	-497.11737	832.77771	1413.39661	-364.75226	960.40503	1665.72742	-311.86905	955.04376	1535.80127	-550.27850	1014.34381	1647.31433	-533.30316	1012.87207	1397.74194	-490.31024	655.58197	1444.29932	-554.97839	464.15033	1460.83569	-656.08063	297.09103	1509.64294	-701.01080	79.37138	1564.93506	-736.63812	57.77005	1481.65613	-552.14978	29.83959	1765.64282	-326.23041	663.47095	1726.59680	-247.57458	471.14929	1745.41101	-209.62531	289.82230	1721.81384	-144.05165	103.86330	1668.71631	-153.73672	37.84476	1723.58118	18.93473	109.38998	1599.54333	-399.66449	1783.57751	-3360.33691	2845.29150	1034.30481			 
84	0.830	1513.61084	-282.97815	1715.25989	1656.94153	-289.08060	1696.25964	1499.45227	-414.56265	1642.59058	1640.68433	-432.83978	1622.09253	1567.98120	-473.77811	1503.24146	1577.99451	-535.63953	1230.17786	1558.37964	-338.21066	1431.18372	1558.18420	-292.91052	1256.54883	1626.97644	-541.03058	1329.34412	1393.29272	-400.25638	1483.07935	1294.90857	-365.35843	1300.20007	1268.13574	-314.14838	1166.21997	1280.20386	-211.78459	1077.84485	1342.08020	-93.74978	1039.87122	1304.51050	-117.00949	1005.23065	1312.95850	-55.69559	980.89496	1753.90430	-406.95557	1464.16174	1832.34131	-483.03415	1290.06055	1859.75330	-501.19580	1146.37390	1886.74768	-495.78955	1027.04688	1876.76196	-466.39615	893.29297	1902.97620	-516.21460	898.95020	1911.45203	-490.24774	831.68689	1413.76550	-352.01251	958.61700	1665.83276	-297.64160	953.36658	1537.92371	-536.90552	1011.99170	1649.33496	-519.00580	1010.65564	1398.04041	-479.38577	654.52344	1444.15186	-546.25714	464.10574	1460.77881	-650.15033	298.91226	1509.24512	-699.78156	82.02525	1564.77454	-735.84656	61.64153	1481.52222	-552.09808	29.85288	1766.01782	-311.97946	662.25110	1726.13831	-231.94083	469.90405	1745.22070	-192.78999	288.66214	1721.09973	-126.26863	103.20729	1668.47522	-136.10210	37.47721	1721.35986	37.04013	109.69779	1600.02161	-386.75131	1781.90198	-3357.23706	2846.02222	1034.65454			 
85	0.840	1513.89697	-270.25485	1713.43274	1657.29932	-276.11594	1694.73181	1500.15308	-401.81906	1640.60254	1641.44592	-419.84818	1620.49609	1569.13208	-460.88275	1501.35388	1579.52771	-522.29810	1228.16394	1559.32800	-325.26599	1429.43921	1559.06311	-279.68890	1254.93677	1628.43298	-527.99091	1327.49683	1394.29260	-387.74481	1481.15552	1295.47717	-352.37561	1298.82458	1268.35168	-299.64899	1165.38367	1280.44385	-195.08676	1080.91345	1342.19189	-75.20553	1047.87512	1305.09448	-97.92696	1011.19464	1313.59106	-35.72826	989.51031	1754.77039	-394.06317	1462.32605	1833.02490	-470.94565	1288.59937	1860.58594	-490.03619	1145.22900	1887.81018	-486.01178	1025.85083	1878.28516	-458.07605	891.78491	1904.21582	-507.98645	898.14545	1913.05310	-482.81387	830.68646	1414.29187	-338.80585	956.87744	1666.00488	-283.20401	951.97931	1539.97400	-522.81073	1009.58270	1651.37817	-504.57050	1008.80450	1398.06323	-468.65109	653.75665	1444.06201	-536.65149	464.01309	1460.71082	-643.58685	300.94077	1508.83105	-698.36975	85.14682	1564.06482	-734.78271	65.41048	1481.26318	-551.95715	29.73293	1766.25098	-294.59665	661.64075	1726.35034	-214.87799	469.21921	1745.02368	-176.82367	287.46481	1720.63782	-111.68633	101.87337	1668.17126	-122.51917	35.77086	1719.13171	51.22894	107.67495	1600.34412	-373.92102	1780.21204	-3357.21899	2845.97412	1034.53040			 
86	0.850	1514.28149	-257.55759	1711.67896	1657.67212	-263.11838	1693.34802	1501.03101	-389.17084	1638.87964	1642.29016	-406.76315	1618.88562	1570.40649	-447.92804	1499.58032	1581.01599	-508.77112	1226.15137	1560.39404	-312.19861	1427.83032	1560.09546	-266.36990	1253.44739	1629.94409	-514.70709	1325.67407	1395.39807	-375.27383	1479.36035	1296.19580	-339.64615	1297.32251	1268.10986	-286.26489	1164.41821	1280.74414	-178.88902	1083.38733	1342.06238	-57.95380	1055.21301	1305.87671	-79.57442	1017.12195	1314.05261	-16.98046	998.05170	1755.84521	-380.92850	1460.62134	1834.36340	-458.29666	1287.52197	1861.25500	-478.67804	1144.00623	1889.00610	-475.85855	1024.84875	1880.05481	-449.11707	890.52917	1905.44421	-499.29056	897.39862	1914.82483	-474.86026	829.54724	1414.80359	-325.27039	955.16333	1666.38184	-268.46573	950.90826	1541.95142	-508.63904	1007.42303	1653.29602	-489.87701	1007.16229	1398.55237	-456.44534	653.00958	1444.11194	-526.45044	463.93567	1460.71680	-636.74738	303.34317	1508.37646	-696.69946	88.70926	1563.66406	-733.41620	70.05858	1481.04150	-551.91571	29.77095	1766.64111	-275.36404	660.84631	1725.93738	-197.80000	468.45694	1744.64868	-162.06593	286.08246	1719.84265	-100.52746	99.56062	1667.41199	-112.58627	33.06494	1717.07654	62.14465	103.36081	1600.69580	-361.06763	1778.67651	-3357.25586	2845.90210	1034.31128			 
87	0.860	1514.69373	-244.85229	1710.09033	1658.19617	-250.12523	1692.10242	1501.93787	-376.54269	1637.22742	1643.32129	-393.93604	1617.91309	1571.75940	-434.98505	1497.94861	1582.55664	-495.10809	1224.27930	1561.61816	-299.10806	1426.43152	1561.35522	-252.86703	1252.21240	1631.10974	-501.27084	1323.49866	1396.68591	-362.82117	1477.77258	1297.13391	-327.49594	1296.34924	1268.40771	-272.86557	1163.67737	1281.09570	-163.88342	1085.78235	1341.74500	-41.66241	1062.02161	1306.53894	-62.18933	1022.80811	1314.65295	1.52666	1005.92755	1757.52026	-367.44394	1459.34448	1835.30896	-445.84128	1286.21069	1862.44275	-466.57596	1143.14905	1890.07153	-465.14636	1023.88367	1881.74402	-439.84607	889.34210	1906.74231	-490.05276	896.72290	1916.38574	-466.52206	828.70789	1415.50403	-311.13553	953.62317	1667.05688	-253.28589	950.19366	1543.78259	-493.90927	1005.33185	1655.12415	-474.99402	1005.74445	1398.75488	-444.05295	652.07373	1444.18152	-515.47821	463.99722	1460.84216	-629.51239	306.07813	1507.92358	-694.79706	92.83411	1563.17834	-731.85046	75.66654	1480.78857	-551.74921	29.62348	1767.18518	-254.51871	660.96667	1725.87573	-180.42250	467.77322	1744.27661	-148.58817	284.40616	1718.86926	-91.99702	96.53262	1666.39246	-106.15376	30.22485	1715.13623	70.28172	96.94085	1601.03223	-348.39307	1777.14490	-3357.27808	2845.96313	1034.41382			 
88	0.870	1515.12549	-232.24983	1708.55054	1658.71130	-237.08789	1690.92249	1502.96545	-363.86078	1635.58398	1644.72266	-380.78116	1616.57764	1573.20288	-422.03726	1496.33875	1584.23572	-481.38519	1222.43335	1562.94910	-285.99841	1425.18127	1562.68579	-239.27422	1251.11975	1633.10876	-487.63635	1321.83569	1398.10266	-350.35345	1476.24963	1298.13281	-315.53369	1295.05457	1268.57141	-260.39673	1162.97485	1281.35315	-149.45801	1087.91138	1341.28735	-26.65546	1068.11768	1306.61133	-46.27741	1027.98059	1314.49524	17.86856	1013.14130	1758.96118	-354.20438	1458.01392	1836.88940	-432.81271	1285.22766	1863.27759	-454.39554	1142.00024	1891.42175	-454.03525	1023.06140	1883.45581	-429.91541	888.29388	1908.14709	-480.19458	896.15485	1918.07910	-457.40057	827.88177	1416.53381	-296.40219	952.19958	1667.97803	-237.60330	949.73712	1545.55029	-478.74811	1003.43085	1656.84729	-459.94296	1004.30762	1399.37524	-430.60620	651.43524	1444.06409	-503.69022	464.04706	1461.13513	-621.84460	309.28555	1507.43506	-692.55237	97.49557	1562.60083	-729.60095	81.45584	1480.45276	-551.60461	29.52837	1767.82788	-232.86810	661.55725	1725.82910	-163.51132	466.87198	1743.91516	-136.48486	282.22806	1717.71887	-85.58973	92.94235	1665.44141	-101.73377	27.33237	1713.54797	76.27367	89.59035	1601.75793	-335.43738	1775.91968	-3360.48291	2845.34473	1034.22913			 
89	0.880	1515.61206	-219.68816	1707.05139	1659.21033	-224.09929	1689.79663	1504.09290	-351.24121	1634.03467	1645.58191	-367.93085	1615.44531	1574.84814	-409.23907	1494.83704	1585.92896	-467.17038	1220.28467	1564.37964	-272.89764	1424.03223	1564.23743	-225.37273	1250.23901	1634.87878	-474.03772	1319.89575	1399.69043	-338.01486	1474.88953	1299.43018	-303.68515	1293.84143	1268.83496	-248.43880	1162.20032	1281.70728	-135.71413	1089.47705	1340.76062	-12.54172	1073.47791	1307.32104	-30.68782	1032.00012	1314.46375	33.89128	1019.90277	1760.59253	-340.69589	1456.96179	1838.37537	-419.69766	1284.27649	1864.60693	-441.47278	1141.21130	1892.65967	-442.29773	1022.25055	1885.21228	-419.37219	887.33435	1909.59216	-469.75107	895.64240	1919.70715	-447.74435	827.11713	1417.76038	-281.10352	950.99408	1669.19531	-221.46808	949.57513	1547.16833	-462.63687	1001.42566	1658.43896	-444.65598	1002.72412	1400.02490	-416.65030	650.58710	1443.84460	-491.17084	464.18192	1461.28113	-613.46576	312.78204	1506.86060	-689.72693	102.61746	1562.27295	-726.58130	88.15327	1480.02917	-551.39526	29.51386	1767.55505	-211.70917	661.99670	1726.40088	-147.42393	465.93579	1743.71497	-125.63439	279.70410	1716.40356	-80.72374	89.28146	1665.38220	-99.66560	25.95713	1712.03967	80.73277	81.06745	1602.19312	-322.79831	1774.48230	-3357.41406	2845.84521	1034.44153			 
